<svg width="157.5mm" height="157.5mm" version="1.1" viewBox="0 0 157.5 157.5" xmlns="http://www.w3.org/2000/svg">
 <g transform="translate(-141.5 49.83)">
  <path d="m179.4 107.7c-2.314-0.3468-4.266-1.08-5.978-2.246-0.9869-0.6718-2.802-2.507-3.436-3.475-2.076-3.165-2.737-6.761-1.905-10.36 0.5304-2.296 1.761-4.498 3.474-6.217 2.534-2.542 5.732-3.871 9.313-3.871 6.392 0 11.78 4.509 12.95 10.83 0.2153 1.17 0.2142 3.408-2e-3 4.535-0.5407 2.818-1.67 4.958-3.681 6.973-1.216 1.219-2.085 1.858-3.423 2.517-1.889 0.9304-3.4 1.292-5.565 1.334-0.807 0.0153-1.591 9e-3 -1.742-0.0134zm52-0.0878c-5.36-0.8276-9.578-4.779-10.85-10.16-0.2139-0.9062-0.2406-1.209-0.244-2.76-4e-3 -1.951 0.094-2.596 0.6489-4.264 0.53-1.593 1.379-3.079 2.498-4.374 1.52-1.758 3.579-3.144 5.745-3.867 0.7377-0.2463 1.306-0.3752 2.843-0.645 0.4024-0.0706 0.4193-0.0818 0.1376-0.091-0.6452-0.0212-1.995-0.304-2.919-0.6114-4.562-1.518-8.015-5.515-8.806-10.19-0.1603-0.9477-0.2892-1.298-0.2892-0.7863 0 0.8816-0.5688 2.892-1.181 4.175-0.8458 1.772-2.407 3.662-4.042 4.894-1.481 1.116-3.601 2.035-5.506 2.387-1.182 0.2184-3.498 0.2189-4.631 9.9e-4 -5.545-1.066-9.761-5.368-10.64-10.86-0.1593-0.9901-0.1798-2.976-0.0407-3.955 0.682-4.806 4.058-8.92 8.622-10.51 0.9848-0.3429 2.489-0.6808 3.098-0.6961 0.1964-5e-3 -0.0671-0.0782-0.6223-0.173-1.648-0.2813-2.681-0.6067-3.969-1.25-2.471-1.234-4.626-3.392-5.884-5.894-0.6281-1.249-1.299-3.629-1.344-4.773-5e-3 -0.1298-0.0652 0.1732-0.1332 0.6732-0.5083 3.734-2.617 7.094-5.749 9.163-2.311 1.527-4.466 2.17-7.268 2.17-1.531 0-2.675-0.156-3.852-0.5251-4.716-1.48-8.117-5.316-9.09-10.25-0.2197-1.115-0.2208-3.428-2e-3 -4.628 0.3344-1.835 1.209-3.879 2.32-5.423 1.121-1.557 3.321-3.385 4.986-4.143 1.309-0.5961 3.326-1.163 4.134-1.163 0.1458 0 0.265-0.0413 0.265-0.0917s-0.1193-0.0917-0.265-0.0917c-0.4225 0-1.971-0.3424-2.742-0.6062-0.9682-0.3314-2.34-1.019-3.2-1.605-0.9869-0.6718-2.802-2.507-3.436-3.475-2.076-3.165-2.737-6.761-1.905-10.36 0.5304-2.296 1.761-4.498 3.474-6.217 2.534-2.542 5.732-3.871 9.313-3.871 4.998 0 9.422 2.711 11.72 7.185 0.6848 1.331 1.317 3.535 1.355 4.726 0.0126 0.3922 0.0234 0.3479 0.2214-0.9062 0.4512-2.857 1.764-5.335 3.919-7.394 1.372-1.311 2.732-2.165 4.502-2.825 1.605-0.5994 2.422-0.7329 4.507-0.7367 2.014-4e-3 2.681 0.0921 4.209 0.6045 2.993 1.003 5.617 3.152 7.184 5.88 0.8327 1.45 1.404 3.059 1.61 4.54 0.0581 0.4161 0.1287 0.7566 0.1568 0.7566 0.0281 0 0.0986-0.3405 0.1568-0.7566 0.5227-3.742 2.913-7.258 6.309-9.28 1.615-0.9614 2.695-1.324 5.319-1.784 0.4024-0.0706 0.4193-0.0818 0.1376-0.091-0.6452-0.0212-1.995-0.304-2.919-0.6114-2.067-0.6881-3.791-1.792-5.372-3.438-5.541-5.773-4.635-15.07 1.925-19.76 1.49-1.066 3.387-1.862 5.265-2.209 1.204-0.2224 3.495-0.2183 4.677 0.0084 4.056 0.7776 7.486 3.342 9.341 6.982 0.6928 1.36 1.023 2.407 1.299 4.118 0.1051 0.6511 0.1661 0.8742 0.1721 0.6292 5e-3 -0.2088 0.0737-0.7246 0.1524-1.146 0.5264-2.822 1.868-5.273 3.955-7.228 1.859-1.741 4.156-2.904 6.647-3.363 1.167-0.2153 3.482-0.2147 4.653 0.0013 5.385 0.9935 9.589 5.195 10.6 10.59 0.0787 0.4217 0.1482 0.9376 0.1545 1.146 8e-3 0.2597 0.0503 0.1133 0.1343-0.4636 0.6416-4.404 3.099-7.914 7.007-10.01 0.8755-0.4694 2.546-1.042 3.668-1.257 1.182-0.2267 3.473-0.2308 4.677-0.0084 1.769 0.3268 3.624 1.077 4.999 2.022 2.927 2.011 4.846 4.888 5.603 8.4 0.2351 1.09 0.24 3.835 9e-3 4.977-0.6544 3.235-2.471 6.118-5.105 8.102-1.481 1.116-3.601 2.035-5.506 2.387-1.182 0.2184-3.498 0.2189-4.631 1e-3 -4.251-0.8176-7.684-3.457-9.543-7.337-0.5772-1.205-0.9046-2.278-1.137-3.727-0.1134-0.7075-0.172-0.9236-0.1782-0.6564-0.0128 0.5528-0.3421 2.124-0.618 2.949-0.6394 1.912-1.696 3.598-3.193 5.094-2.573 2.572-5.628 3.837-9.267 3.837-3.639 0-6.709-1.27-9.266-3.834-1.511-1.515-2.553-3.184-3.208-5.138-0.2765-0.8247-0.5894-2.338-0.6034-2.919-6e-3 -0.2534-0.0646-0.039-0.1698 0.6223-0.8133 5.112-4.17 9.094-8.992 10.67-0.9355 0.305-2.17 0.5611-2.784 0.5777l-0.3796 0.0103 0.4585 0.08c2.191 0.3821 2.96 0.6014 4.35 1.241 2.104 0.9673 4.359 3.026 5.63 5.138 0.7873 1.309 1.406 3.014 1.67 4.606 0.2313 1.391 0.1487 3.823-0.1736 5.108-0.2981 1.188-0.5786 1.926-1.17 3.077-1.828 3.558-5.448 6.209-9.344 6.841-0.5549 0.09-1.009 0.1843-1.009 0.2095 0 0.0252 0.454 0.1195 1.009 0.2095 3.671 0.5955 7.101 2.967 9.025 6.239 0.8934 1.519 1.474 3.195 1.739 5.021 0.084 0.5781 0.1295 0.7396 0.1372 0.487 0.0396-1.303 0.6482-3.375 1.432-4.876 0.6962-1.333 1.403-2.272 2.527-3.359 1.886-1.822 3.881-2.889 6.48-3.465 1.299-0.2878 3.982-0.2878 5.281 0 2.599 0.5759 4.594 1.643 6.48 3.465 1.126 1.088 1.831 2.026 2.531 3.366 0.772 1.478 1.393 3.599 1.427 4.869 6e-3 0.2492 0.0522 0.0872 0.1343-0.4762 0.7416-5.09 4.037-9.121 8.809-10.78 2.716-0.9427 5.962-0.9173 8.683 0.0679 4.25 1.538 7.328 5.037 8.39 9.537 0.2139 0.9062 0.2406 1.209 0.244 2.76 4e-3 1.963-0.1126 2.728-0.6576 4.303-0.6888 1.99-1.628 3.487-3.144 5.013-2.019 2.032-4.437 3.286-7.17 3.719-1.169 0.1852-3.809 0.1308-4.844-0.0999-3.916-0.873-7.239-3.453-9.028-7.008-0.6281-1.249-1.299-3.629-1.344-4.773-5e-3 -0.1298-0.0651 0.1732-0.1332 0.6732-0.2181 1.602-0.8005 3.342-1.568 4.685-1.956 3.422-5.396 5.853-9.195 6.501-1.143 0.195-3.364 0.195-4.507 0-4.114-0.7017-7.755-3.453-9.574-7.235-0.6501-1.352-1.221-3.397-1.252-4.481-0.0125-0.4451-0.0223-0.4067-0.2193 0.8584-0.1739 1.117-0.7081 2.8-1.197 3.771-1.258 2.502-3.413 4.66-5.884 5.894-1.288 0.6435-2.322 0.9689-3.969 1.25-0.5552 0.0948-0.8187 0.168-0.6223 0.173 0.6095 0.0153 2.114 0.3532 3.098 0.6961 4.268 1.486 7.493 5.164 8.483 9.675 0.2082 0.9485 0.2848 3.451 0.1384 4.523-0.5854 4.289-3.395 8.145-7.292 10-1.415 0.6753-3.38 1.226-4.481 1.256l-0.3796 0.0103 0.4585 0.0799c2.191 0.3821 2.96 0.6014 4.35 1.241 2.104 0.9673 4.359 3.026 5.63 5.138 0.7873 1.309 1.406 3.014 1.67 4.606 0.2313 1.391 0.1487 3.823-0.1736 5.108-1.309 5.217-5.402 9.053-10.6 9.936-1.312 0.2228-2.914 0.2404-4.174 0.0459zm-11.02-41.05c0.1303-1.368 0.8438-3.434 1.658-4.802 1.292-2.171 3.277-4.046 5.421-5.119 1.388-0.6952 3.489-1.295 4.723-1.349 0.3048-0.0133 0.3071-0.0158 0.0459-0.0491-3.367-0.4298-5.889-1.633-8.116-3.874-1.133-1.139-1.835-2.108-2.499-3.446-0.6358-1.281-1.261-3.394-1.261-4.261 0-0.1534-0.0413-0.279-0.0917-0.279s-0.0924 0.1341-0.0932 0.298c-2e-3 0.4787-0.3281 1.881-0.6445 2.774-0.6826 1.927-1.627 3.418-3.114 4.913-2.058 2.071-4.444 3.291-7.335 3.75-0.581 0.0923-0.912 0.1721-0.7354 0.1773 0.9598 0.0284 2.693 0.4642 4.016 1.01 2.364 0.9749 4.695 3.045 6.114 5.432 0.821 1.38 1.542 3.461 1.672 4.825 0.03 0.3152 0.084 0.5732 0.1198 0.5732s0.0898-0.2579 0.1198-0.5732zm-25.94-27.8c1.316-4.945 5.473-8.762 10.42-9.564 0.5549-0.09 1.009-0.1843 1.009-0.2095 0-0.0252-0.454-0.1195-1.009-0.2095-2.535-0.4112-4.988-1.676-6.886-3.551-2.182-2.154-3.431-4.644-3.881-7.731-0.0861-0.5912-0.1263-0.7277-0.1343-0.4568-0.0182 0.6146-0.3386 2.127-0.6427 3.035-0.3446 1.029-0.883 2.112-1.559 3.136-0.6414 0.9721-2.459 2.811-3.433 3.475-0.8605 0.5857-2.232 1.274-3.2 1.605-0.7706 0.2638-2.32 0.6062-2.742 0.6062-0.1458 0-0.265 0.0413-0.265 0.0917s0.1193 0.0917 0.265 0.0917c0.8086 0 2.825 0.5674 4.134 1.163 1.665 0.758 3.865 2.586 4.986 4.143 1.35 1.875 2.406 4.697 2.455 6.558 6e-3 0.2492 0.0522 0.0872 0.1343-0.4762 0.0684-0.4696 0.2267-1.238 0.3516-1.708zm25.92 1.778c0-0.4612 0.2679-1.633 0.607-2.656 1.234-3.721 4.224-6.763 7.986-8.125 0.8757-0.317 2.451-0.679 2.954-0.679 0.5664 0 0.2645-0.1455-0.5252-0.253-4.472-0.6091-8.513-3.845-10.2-8.17-0.3841-0.9824-0.8149-2.671-0.8164-3.201-4.6e-4 -0.1639-0.0421-0.298-0.0925-0.298s-0.0921 0.1341-0.0925 0.298c-4.6e-4 0.1639-0.1002 0.736-0.2216 1.271-1.137 5.013-5.144 8.968-10.11 9.98-0.5101 0.104-1.055 0.189-1.211 0.189-0.156 0-0.2836 0.0413-0.2836 0.0917s0.1276 0.0917 0.2836 0.0917c0.156 0 0.6928 0.0834 1.193 0.1853 4.3 0.8763 7.928 3.941 9.537 8.054 0.3841 0.9824 0.8149 2.671 0.8164 3.201 4.6e-4 0.1639 0.0421 0.298 0.0925 0.298s0.0917-0.1255 0.0917-0.279zm63.32 67.04c-2.657-0.4775-5.039-1.706-6.932-3.576-1.84-1.817-2.993-3.835-3.619-6.33-0.3315-1.323-0.417-3.734-0.1825-5.144 0.4804-2.889 1.779-5.332 3.925-7.382 0.8849-0.8456 2.151-1.761 3.088-2.231 0.8207-0.4125 2.248-0.9159 3.203-1.129 1.212-0.2712 4.147-0.2918 5.333-0.0375 1.761 0.3777 3.231 0.9978 4.705 1.986 3.117 2.089 5.138 5.283 5.718 9.036 0.2031 1.315 0.1211 3.428-0.1837 4.733-1.178 5.044-5.096 8.916-10.1 9.986-1.36 0.2906-3.609 0.332-4.949 0.0912zm-142.2-144.3v-13.11h26.23v26.23h-26.23z"/>
 </g>
</svg>
